<?xml version="1.0" encoding="iso-8859-1"?>
<!-- Generator: Adobe Illustrator 19.0.0, SVG Export Plug-In . SVG Version: 6.00 Build 0)  -->
<svg version="1.1" id="Capa_1" xmlns="http://www.w3.org/2000/svg" xmlns:xlink="http://www.w3.org/1999/xlink" x="0px" y="0px"
	 viewBox="0 0 479.862 479.862" style="enable-background:new 0 0 479.862 479.862;" xml:space="preserve">
<g>
	<g>
		<path d="M359.862,151.047c-17.673,0-32,14.327-32,32s14.327,32,32,32c17.673,0,32-14.327,32-32S377.535,151.047,359.862,151.047z
			 M359.862,199.047c-8.837,0-16-7.163-16-16s7.163-16,16-16s16,7.163,16,16S368.698,199.047,359.862,199.047z"/>
	</g>
</g>
<g>
	<g>
		<path d="M359.862,263.047c-17.673,0-32,14.327-32,32c0,17.673,14.327,32,32,32c17.673,0,32-14.327,32-32
			C391.862,277.374,377.535,263.047,359.862,263.047z M359.862,311.047c-8.837,0-16-7.163-16-16s7.163-16,16-16s16,7.163,16,16
			S368.698,311.047,359.862,311.047z"/>
	</g>
</g>
<g>
	<g>
		<path d="M303.862,207.047c-17.673,0-32,14.327-32,32s14.327,32,32,32c17.673,0,32-14.327,32-32S321.535,207.047,303.862,207.047z
			 M303.862,255.047c-8.837,0-16-7.163-16-16s7.163-16,16-16s16,7.163,16,16S312.698,255.047,303.862,255.047z"/>
	</g>
</g>
<g>
	<g>
		<path d="M415.862,207.047c-17.673,0-32,14.327-32,32s14.327,32,32,32c17.673,0,32-14.327,32-32S433.535,207.047,415.862,207.047z
			 M415.862,255.047c-8.837,0-16-7.163-16-16s7.163-16,16-16s16,7.163,16,16S424.698,255.047,415.862,255.047z"/>
	</g>
</g>
<g>
	<g>
		<path d="M183.862,207.047h-32v-32c0-4.418-3.582-8-8-8h-48c-4.418,0-8,3.582-8,8v32h-32c-4.418,0-8,3.582-8,8v48
			c0,4.418,3.582,8,8,8h32v32c0,4.418,3.582,8,8,8h48c4.418,0,8-3.582,8-8v-32h32c4.418,0,8-3.582,8-8v-48
			C191.862,210.628,188.28,207.047,183.862,207.047z M175.862,255.047h-32c-4.418,0-8,3.582-8,8v32h-32v-32c0-4.418-3.582-8-8-8h-32
			v-32h32c4.418,0,8-3.582,8-8v-32h32v32c0,4.418,3.582,8,8,8h32V255.047z"/>
	</g>
</g>
<g>
	<g>
		<path d="M360.83,119.103c-0.321-0.039-0.644-0.057-0.968-0.056h-240c-0.321-0.002-0.642,0.017-0.96,0.056
			C52.159,120.187-1.068,175.171,0.016,241.913c1.071,65.93,54.787,118.835,120.726,118.902
			c31.254,0.092,61.309-12.024,83.76-33.768h70.72c48.094,46.277,124.596,44.804,170.873-3.289
			c21.674-22.525,33.777-52.572,33.767-83.831C479.668,173.974,426.773,120.282,360.83,119.103z M358.99,344.823l-0.008-0.008
			c-28.137,0.077-55.108-11.238-74.768-31.368c-1.5-1.531-3.552-2.395-5.696-2.4h-77.312c-2.143,0.005-4.196,0.869-5.696,2.4
			c-40.588,41.307-106.977,41.889-148.283,1.301S5.338,207.771,45.926,166.465c19.522-19.868,46.147-31.152,74-31.362
			c0.267,0,0.535-0.016,0.8-0.048H358.99c0.266,0.032,0.533,0.048,0.8,0.048c57.911,0.676,104.309,48.17,103.633,106.08
			C462.755,298.452,416.262,344.591,358.99,344.823z"/>
	</g>
</g>
<g>
</g>
<g>
</g>
<g>
</g>
<g>
</g>
<g>
</g>
<g>
</g>
<g>
</g>
<g>
</g>
<g>
</g>
<g>
</g>
<g>
</g>
<g>
</g>
<g>
</g>
<g>
</g>
<g>
</g>
</svg>
